{
  "source": "C:\\Users\\Peter\\Desktop\\stuff\\MIUN\\quantitative_research\\video_compression\\videos\\BVI-HD\\BVI-HD_CDVL_videos\\ORIG\\Diver_1920x1080_30fps.mp4",
  "output": "C:\\Users\\Peter\\Desktop\\stuff\\MIUN\\quantitative_research\\video_compression\\compressed_videos\\BVI-HD\\vp9\\8\\Diver_1920x1080_30fps_vp9.webm",
  "codec": "vp9",
  "ok": "Input #0, mov,mp4,m4a,3gp,3g2,mj2, from 'C:\\Users\\Peter\\Desktop\\stuff\\MIUN\\quantitative_research\\video_compression\\videos\\BVI-HD\\BVI-HD_CDVL_videos\\ORIG\\Diver_1920x1080_30fps.mp4':\n  Metadata:\n    major_brand     : isom\n    minor_version   : 512\n    compatible_brands: isomiso2avc1mp41\n    encoder         : Lavf54.28.101\n  Duration: 00:00:05.00, start: 0.000000, bitrate: 196798 kb/s\n  Stream #0:0[0x1](und): Video: h264 (High 4:4:4 Predictive) (avc1 / 0x31637661), yuv420p(progressive), 1920x1080, 196794 kb/s, 30 fps, 30 tbr, 30 tbn (default)\n    Metadata:\n      handler_name    : VideoHandler\n      vendor_id       : [0][0][0][0]\n[out#0/webm @ 0000019727dc9380] Codec AVOption b:a (set bitrate (in bits/s)) has not been used for any stream. The most likely reason is either wrong type (e.g. a video option with no video streams) or that it is a private option of some decoder which was not actually used for any stream.\nStream mapping:\n  Stream #0:0 -> #0:0 (h264 (native) -> vp9 (libvpx-vp9))\nPress [q] to stop, [?] for help\n[libvpx-vp9 @ 0000019728571440] v1.15.2-100-g40561f514\nOutput #0, webm, to 'C:\\Users\\Peter\\Desktop\\stuff\\MIUN\\quantitative_research\\video_compression\\compressed_videos\\BVI-HD\\vp9\\8\\Diver_1920x1080_30fps_vp9.webm':\n  Metadata:\n    major_brand     : isom\n    minor_version   : 512\n    compatible_brands: isomiso2avc1mp41\n    encoder         : Lavf62.3.100\n  Stream #0:0(und): Video: vp9, yuv420p(tv, progressive), 1920x1080, q=2-31, 8000 kb/s, 30 fps, 1k tbn (default)\n    Metadata:\n      encoder         : Lavc62.11.100 libvpx-vp9\n      handler_name    : VideoHandler\n      vendor_id       : [0][0][0][0]\n    Side data:\n      cpb: bitrate max/min/avg: 0/0/0 buffer size: 8000000 vbv_delay: N/A\nframe=    0 fps=0.0 q=0.0 size=       0KiB time=N/A bitrate=N/A speed=N/A elapsed=0:00:00.52    \nframe=    7 fps=6.4 q=19.0 size=       1KiB time=00:00:00.23 bitrate=  21.7kbits/s speed=0.212x elapsed=0:00:01.10    \nframe=   10 fps=6.1 q=14.0 size=       1KiB time=00:00:00.33 bitrate=  15.2kbits/s speed=0.205x elapsed=0:00:01.62    \nframe=   14 fps=6.5 q=15.0 size=       1KiB time=00:00:00.46 bitrate=  10.9kbits/s speed=0.217x elapsed=0:00:02.14    \nframe=   18 fps=6.7 q=15.0 size=       1KiB time=00:00:00.60 bitrate=   8.5kbits/s speed=0.223x elapsed=0:00:02.68    \nframe=   20 fps=6.2 q=15.0 size=       1KiB time=00:00:00.66 bitrate=   7.6kbits/s speed=0.206x elapsed=0:00:03.23    \nframe=   24 fps=6.4 q=15.0 size=       1KiB time=00:00:00.80 bitrate=   6.3kbits/s speed=0.214x elapsed=0:00:03.74    \nframe=   29 fps=6.8 q=15.0 size=       1KiB time=00:00:00.93 bitrate=   5.4kbits/s speed=0.219x elapsed=0:00:04.26    \nframe=   30 fps=6.2 q=15.0 size=       1KiB time=00:00:01.00 bitrate=   5.1kbits/s speed=0.208x elapsed=0:00:04.81    \nframe=   35 fps=6.6 q=16.0 size=       1KiB time=00:00:01.16 bitrate=   4.3kbits/s speed=0.219x elapsed=0:00:05.33    \nframe=   39 fps=6.6 q=16.0 size=       1KiB time=00:00:01.30 bitrate=   3.9kbits/s speed=0.221x elapsed=0:00:05.87    \nframe=   42 fps=6.6 q=14.0 size=       1KiB time=00:00:01.40 bitrate=   3.6kbits/s speed=0.219x elapsed=0:00:06.39    \nframe=   46 fps=6.7 q=16.0 size=       1KiB time=00:00:01.53 bitrate=   3.3kbits/s speed=0.222x elapsed=0:00:06.91    \nframe=   49 fps=6.6 q=17.0 size=       1KiB time=00:00:01.63 bitrate=   3.1kbits/s speed=0.219x elapsed=0:00:07.45    \nframe=   52 fps=6.5 q=17.0 size=       1KiB time=00:00:01.73 bitrate=   2.9kbits/s speed=0.218x elapsed=0:00:07.96    \nframe=   56 fps=6.6 q=18.0 size=       1KiB time=00:00:01.86 bitrate=   2.7kbits/s speed=0.22x elapsed=0:00:08.49    \nframe=   59 fps=6.5 q=9.0 size=       1KiB time=00:00:01.96 bitrate=   2.6kbits/s speed=0.218x elapsed=0:00:09.02    \nframe=   63 fps=6.6 q=19.0 size=       1KiB time=00:00:02.10 bitrate=   2.4kbits/s speed=0.22x elapsed=0:00:09.53    \nframe=   66 fps=6.6 q=17.0 size=       1KiB time=00:00:02.20 bitrate=   2.3kbits/s speed=0.219x elapsed=0:00:10.05    \nframe=   70 fps=6.6 q=16.0 size=       1KiB time=00:00:02.33 bitrate=   2.2kbits/s speed=0.221x elapsed=0:00:10.56    \nframe=   73 fps=6.6 q=17.0 size=       1KiB time=00:00:02.43 bitrate=   2.1kbits/s speed=0.219x elapsed=0:00:11.09    \nframe=   76 fps=6.5 q=17.0 size=       1KiB time=00:00:02.53 bitrate=   2.0kbits/s speed=0.218x elapsed=0:00:11.62    \nframe=   80 fps=6.6 q=18.0 size=       1KiB time=00:00:02.66 bitrate=   1.9kbits/s speed=0.219x elapsed=0:00:12.15    \nframe=   83 fps=6.5 q=9.0 size=       1KiB time=00:00:02.76 bitrate=   1.8kbits/s speed=0.218x elapsed=0:00:12.68    \nframe=   87 fps=6.6 q=19.0 size=       1KiB time=00:00:02.90 bitrate=   1.7kbits/s speed=0.219x elapsed=0:00:13.21    \nframe=   90 fps=6.6 q=19.0 size=       1KiB time=00:00:03.00 bitrate=   1.7kbits/s speed=0.219x elapsed=0:00:13.72    \nframe=   94 fps=6.6 q=19.0 size=       1KiB time=00:00:03.13 bitrate=   1.6kbits/s speed=0.22x elapsed=0:00:14.25    \nframe=   98 fps=6.6 q=17.0 size=       1KiB time=00:00:03.26 bitrate=   1.6kbits/s speed=0.221x elapsed=0:00:14.78    \nframe=  101 fps=6.6 q=8.0 size=       1KiB time=00:00:03.36 bitrate=   1.5kbits/s speed=0.22x elapsed=0:00:15.30    \nframe=  105 fps=6.6 q=18.0 size=       1KiB time=00:00:03.50 bitrate=   1.4kbits/s speed=0.221x elapsed=0:00:15.82    \nframe=  108 fps=6.6 q=18.0 size=       1KiB time=00:00:03.60 bitrate=   1.4kbits/s speed=0.22x elapsed=0:00:16.33    \nframe=  112 fps=6.6 q=19.0 size=       1KiB time=00:00:03.73 bitrate=   1.4kbits/s speed=0.221x elapsed=0:00:16.85    \nframe=  115 fps=6.6 q=20.0 size=       1KiB time=00:00:03.83 bitrate=   1.3kbits/s speed=0.22x elapsed=0:00:17.40    \nframe=  117 fps=6.5 q=21.0 size=       1KiB time=00:00:03.90 bitrate=   1.3kbits/s speed=0.217x elapsed=0:00:17.95    \nframe=  119 fps=6.4 q=10.0 size=       1KiB time=00:00:03.93 bitrate=   1.3kbits/s speed=0.212x elapsed=0:00:18.53    \nframe=  121 fps=6.3 q=23.0 size=       1KiB time=00:00:04.03 bitrate=   1.3kbits/s speed=0.211x elapsed=0:00:19.12    \nframe=  124 fps=6.3 q=11.0 size=       1KiB time=00:00:04.13 bitrate=   1.2kbits/s speed=0.21x elapsed=0:00:19.66    \nframe=  126 fps=6.2 q=22.0 size=       1KiB time=00:00:04.20 bitrate=   1.2kbits/s speed=0.208x elapsed=0:00:20.23    \nframe=  126 fps=6.1 q=22.0 size=       1KiB time=00:00:04.20 bitrate=   1.2kbits/s speed=0.202x elapsed=0:00:20.78    \nframe=  126 fps=5.9 q=22.0 size=       1KiB time=00:00:04.20 bitrate=   1.2kbits/s speed=0.197x elapsed=0:00:21.34    \nframe=  126 fps=5.8 q=22.0 size=       1KiB time=00:00:04.20 bitrate=   1.2kbits/s speed=0.192x elapsed=0:00:21.90    \nframe=  126 fps=5.6 q=22.0 size=       1KiB time=00:00:04.20 bitrate=   1.2kbits/s speed=0.187x elapsed=0:00:22.46    \nframe=  126 fps=5.5 q=22.0 size=       1KiB time=00:00:04.20 bitrate=   1.2kbits/s speed=0.182x elapsed=0:00:23.02    \nframe=  126 fps=5.3 q=22.0 size=       1KiB time=00:00:04.20 bitrate=   1.2kbits/s speed=0.178x elapsed=0:00:23.55    \nframe=  126 fps=5.2 q=22.0 size=       1KiB time=00:00:04.20 bitrate=   1.2kbits/s speed=0.174x elapsed=0:00:24.10    \n[out#0/webm @ 0000019727dc9380] video:3889KiB audio:0KiB subtitle:0KiB other streams:0KiB global headers:0KiB muxing overhead: 0.047460%\nframe=  150 fps=6.1 q=23.0 Lsize=    3891KiB time=00:00:05.00 bitrate=6374.6kbits/s speed=0.204x elapsed=0:00:24.51    \n",
  "seconds": 25.573179244995117,
  "probe_out": {}
}